<svg xmlns="http://www.w3.org/2000/svg" width="25" height="25" viewBox="0 0 25 25">
  <g id="coast" transform="translate(-211.739 -211.52)">
    <g id="Group_2" data-name="Group 2" fill="#004dda" transform="translate(214.52 211.52)">
      <g id="Group_1" data-name="Group 1">
        <path id="Path_1" data-name="Path 1" d="M106.96,6.028v-1.1h-1.688a3.807,3.807,0,0,0-.724-1.745L105.7,2.031l-.775-.775-1.156,1.156a3.807,3.807,0,0,0-1.745-.724V0h-1.1V1.688a3.807,3.807,0,0,0-1.745.724L98.031,1.257l-.775.775,1.156,1.156a3.807,3.807,0,0,0-.724,1.745H96v1.1h1.688a3.807,3.807,0,0,0,.724,1.745L97.257,8.929l.775.775,1.156-1.156a3.813,3.813,0,0,0,1.745.724V10.96h1.1V9.272a3.807,3.807,0,0,0,1.745-.724L104.929,9.7l.775-.775-1.156-1.156a3.813,3.813,0,0,0,.724-1.745h1.688ZM101.48,8.22a2.74,2.74,0,1,1,2.74-2.74A2.743,2.743,0,0,1,101.48,8.22Z" transform="translate(-96)"/>
      </g>
    </g>
    <g id="Group_4" data-name="Group 4" fill="#004dda" transform="translate(211.739 224.414)">
      <g id="Group_3" data-name="Group 3" transform="translate(0)">
        <path id="Path_2" data-name="Path 2" d="M21.106,353.382A7.362,7.362,0,0,0,16.665,352a7.369,7.369,0,0,0-4.443,1.382A6.376,6.376,0,0,1,8.33,354.6a6.368,6.368,0,0,1-3.89-1.218A7.36,7.36,0,0,0,0,352v2.6a6.368,6.368,0,0,1,3.89,1.218A7.36,7.36,0,0,0,8.33,357.2a7.362,7.362,0,0,0,4.441-1.382,6.381,6.381,0,0,1,3.894-1.218,6.376,6.376,0,0,1,3.892,1.218A7.369,7.369,0,0,0,25,357.2v-2.6A6.381,6.381,0,0,1,21.106,353.382Z" transform="translate(0 -352)"/>
      </g>
    </g>
    <g id="Group_6" data-name="Group 6" fill="#004dda" transform="translate(211.739 231.32)">
      <g id="Group_5" data-name="Group 5" transform="translate(0)">
        <path id="Path_3" data-name="Path 3" d="M21.11,449.382A7.36,7.36,0,0,0,16.67,448a7.362,7.362,0,0,0-4.441,1.382A6.381,6.381,0,0,1,8.335,450.6a6.376,6.376,0,0,1-3.892-1.218A7.369,7.369,0,0,0,0,448v2.6a6.381,6.381,0,0,1,3.894,1.218A7.362,7.362,0,0,0,8.335,453.2a7.369,7.369,0,0,0,4.443-1.382A6.376,6.376,0,0,1,16.67,450.6a6.368,6.368,0,0,1,3.89,1.218A7.36,7.36,0,0,0,25,453.2v-2.6A6.368,6.368,0,0,1,21.11,449.382Z" transform="translate(0 -448)"/>
      </g>
    </g>
  </g>
</svg>
