<?xml version="1.0" encoding="utf-8"?>
<!-- Generator: Adobe Illustrator 23.0.2, SVG Export Plug-In . SVG Version: 6.00 Build 0)  -->
<svg version="1.1" id="Layer_1" xmlns="http://www.w3.org/2000/svg" xmlns:xlink="http://www.w3.org/1999/xlink" x="0px" y="0px"
	 viewBox="0 0 595.28 181.82" style="enable-background:new 0 0 595.28 181.82;" xml:space="preserve">
<style type="text/css">
	.st0{fill:#32A067;}
	.st1{fill:#004DDA;}
</style>
<g>
	<g>
		<path class="st0" d="M76.14,70.74v42.79c0,0.07-0.02,0.55-0.05,1.45c-0.03,0.9-0.22,2.05-0.57,3.45c-0.35,1.4-0.92,3-1.72,4.79
			c-0.8,1.8-1.96,3.64-3.49,5.52c-1.53,1.88-3.5,3.74-5.89,5.57c-2.4,1.83-5.36,3.49-8.89,4.99l-4.94-11.78
			c1.63-0.7,3.07-1.42,4.32-2.17c1.25-0.75,2.33-1.52,3.24-2.3c0.92-0.78,1.67-1.55,2.27-2.3c0.6-0.75,1.1-1.46,1.5-2.12
			c0.9-1.6,1.38-3.16,1.45-4.69V70.74H76.14z M63.16,59.45c0-0.9,0.17-1.74,0.52-2.52c0.35-0.78,0.82-1.46,1.4-2.05
			c0.58-0.58,1.26-1.05,2.05-1.4c0.78-0.35,1.62-0.52,2.52-0.52c0.9,0,1.74,0.17,2.52,0.52c0.78,0.35,1.46,0.82,2.05,1.4
			c0.58,0.58,1.05,1.27,1.4,2.05c0.35,0.78,0.52,1.62,0.52,2.52c0,0.9-0.18,1.74-0.52,2.52c-0.35,0.78-0.82,1.46-1.4,2.05
			c-0.58,0.58-1.26,1.04-2.05,1.37c-0.78,0.33-1.62,0.5-2.52,0.5c-0.9,0-1.74-0.17-2.52-0.5c-0.78-0.33-1.46-0.79-2.05-1.37
			c-0.58-0.58-1.05-1.26-1.4-2.05C63.33,61.19,63.16,60.35,63.16,59.45z"/>
		<path class="st0" d="M108.34,70.74v42.79c0,0.07-0.02,0.55-0.05,1.45c-0.03,0.9-0.22,2.05-0.57,3.45c-0.35,1.4-0.92,3-1.72,4.79
			c-0.8,1.8-1.96,3.64-3.49,5.52c-1.53,1.88-3.5,3.74-5.89,5.57c-2.4,1.83-5.36,3.49-8.89,4.99l-4.94-11.78
			c1.63-0.7,3.07-1.42,4.32-2.17c1.25-0.75,2.33-1.52,3.24-2.3c0.92-0.78,1.67-1.55,2.27-2.3c0.6-0.75,1.1-1.46,1.5-2.12
			c0.9-1.6,1.38-3.16,1.45-4.69V70.74H108.34z"/>
		<path class="st0" d="M125.52,125.41h16.03c1.9,0,3.59-0.43,5.09-1.3c1.5-0.87,2.65-2.11,3.44-3.74h-14.73
			c-2.26,0-4.39-0.43-6.39-1.3c-2-0.87-3.74-2.04-5.24-3.52c-1.5-1.48-2.68-3.22-3.54-5.22c-0.87-2-1.3-4.13-1.3-6.39V93.85
			c0-3.19,0.59-6.19,1.77-8.99c1.18-2.8,2.8-5.24,4.84-7.34c2.05-2.1,4.44-3.75,7.19-4.97c2.75-1.21,5.67-1.82,8.76-1.82
			c3.13,0,6.07,0.62,8.81,1.87c2.75,1.25,5.14,2.92,7.19,5.02c2.05,2.1,3.66,4.53,4.84,7.29c1.18,2.76,1.77,5.66,1.77,8.69v21.97
			c0,3.1-0.59,6.02-1.77,8.76c-1.18,2.75-2.79,5.14-4.82,7.19c-2.03,2.05-4.42,3.66-7.16,4.84c-2.75,1.18-5.67,1.77-8.76,1.77
			h-16.03V125.41z M151.33,107.63V93.6c0-1.33-0.26-2.61-0.77-3.84c-0.52-1.23-1.22-2.3-2.12-3.22c-0.9-0.91-1.95-1.65-3.15-2.2
			c-1.2-0.55-2.48-0.82-3.84-0.82c-1.37,0-2.64,0.27-3.82,0.8c-1.18,0.53-2.21,1.27-3.1,2.2c-0.88,0.93-1.58,2.03-2.1,3.3
			c-0.52,1.27-0.77,2.61-0.77,4.04v10.09c0,1.03,0.36,1.91,1.07,2.62c0.72,0.72,1.59,1.07,2.62,1.07H151.33z"/>
		<path class="st0" d="M177.14,70.74c6.12,0,11.37,0.51,15.73,1.52c4.36,1.02,7.92,2.5,10.68,4.47c2.76,1.96,4.79,4.39,6.09,7.26
			c1.3,2.88,1.95,6.2,1.95,9.96v9.99c0,2.26-0.43,4.39-1.3,6.39c-0.87,2-2.06,3.74-3.57,5.22c-1.51,1.48-3.29,2.65-5.32,3.52
			c-2.03,0.87-4.19,1.3-6.49,1.3h-20.32v-12.73h20.32c1.06,0,1.98-0.36,2.75-1.07c0.77-0.72,1.15-1.59,1.15-2.62v-9.99
			c0-1.7-0.41-3.2-1.22-4.49c-0.82-1.3-2.1-2.39-3.84-3.27c-1.75-0.88-3.99-1.56-6.71-2.02c-2.73-0.47-6.03-0.7-9.89-0.7V70.74z"/>
		<g>
			<path class="st1" d="M273.47,127.08c-0.58-0.58-1.26-1.04-2.05-1.37c-0.78-0.33-1.62-0.5-2.52-0.5c-0.9,0-1.74,0.17-2.52,0.5
				c-0.78,0.33-1.47,0.79-2.05,1.37c-0.58,0.58-1.04,1.26-1.37,2.02c-0.33,0.77-0.5,1.6-0.5,2.5c0,0.9,0.17,1.74,0.5,2.52
				c0.33,0.78,0.79,1.46,1.37,2.05s1.26,1.05,2.05,1.4c0.78,0.35,1.62,0.52,2.52,0.52c0.9,0,1.74-0.17,2.52-0.52
				c0.78-0.35,1.46-0.82,2.05-1.4s1.05-1.26,1.4-2.05c0.35-0.78,0.52-1.62,0.52-2.52c0-0.9-0.17-1.73-0.52-2.5
				C274.52,128.33,274.05,127.66,273.47,127.08z"/>
			<path class="st1" d="M366.46,76.13c-2.16-1.86-4.65-3.23-7.46-4.09c-2.81-0.87-5.73-1.3-8.76-1.3c-2.43,0-4.87,0.29-7.31,0.87
				c-2.45,0.58-4.76,1.42-6.94,2.52c-2.18,1.1-4.17,2.43-5.97,3.99c-1.8,1.56-3.25,3.31-4.34,5.24c-1.73,0.5-3.32,1.27-4.77,2.3
				c-1.45,1.03-2.7,2.27-3.74,3.72c-1.05,1.45-1.87,3.06-2.47,4.84c-0.6,1.78-0.9,3.67-0.9,5.67v7.74h-5.04h-4.19h-5.04V80.51
				h-12.78v27.12h-25.71c-1.36,0-2.65-0.26-3.87-0.77c-1.22-0.52-2.27-1.22-3.17-2.12c-0.9-0.9-1.61-1.95-2.12-3.17
				c-0.52-1.21-0.77-2.5-0.77-3.87V79.12H238.3V97.7c0,3.13,0.6,6.07,1.8,8.81c1.2,2.75,2.82,5.14,4.87,7.19
				c2.05,2.05,4.45,3.67,7.21,4.87c2.76,1.2,5.71,1.8,8.84,1.8h43.54h4.19h48.18c2.3,0,4.46-0.43,6.49-1.3
				c2.03-0.87,3.79-2.04,5.29-3.52c1.5-1.48,2.69-3.22,3.57-5.22c0.88-2,1.32-4.13,1.32-6.39V94c0-4.16-0.65-7.71-1.95-10.66
				C370.35,80.4,368.62,77.99,366.46,76.13z M334.11,107.58h-7.59v-7.69c0-1.23,0.37-2.27,1.1-3.12c0.73-0.85,1.63-1.27,2.7-1.27
				c0.53,0,1.03,0.11,1.5,0.32c0.47,0.22,0.87,0.52,1.22,0.9c0.35,0.38,0.62,0.83,0.8,1.35c0.18,0.52,0.27,1.07,0.27,1.67V107.58z
				 M360.87,103.94c0,1.03-0.38,1.91-1.15,2.62c-0.77,0.72-1.7,1.07-2.8,1.07h-10.03v-7.89c0.03-2.8-0.56-5.36-1.77-7.69
				c-1.22-2.33-2.82-4.29-4.82-5.89c1.36-0.83,2.92-1.49,4.67-1.97c1.75-0.48,3.5-0.72,5.27-0.72c1.37,0,2.69,0.2,3.97,0.6
				c1.28,0.4,2.41,1.02,3.4,1.87c0.98,0.85,1.77,1.94,2.37,3.27c0.6,1.33,0.9,2.93,0.9,4.79V103.94z"/>
			<path class="st1" d="M419.13,83.99c-1.3-2.88-3.33-5.3-6.09-7.26c-2.76-1.96-6.32-3.45-10.68-4.47
				c-4.36-1.02-9.6-1.52-15.73-1.52v12.73c3.86,0,7.15,0.23,9.89,0.7c2.73,0.47,4.97,1.14,6.71,2.02c1.75,0.88,3.03,1.97,3.84,3.27
				c0.81,1.3,1.22,2.8,1.22,4.49v9.99c0,1.03-0.38,1.91-1.15,2.62c-0.77,0.72-1.68,1.07-2.75,1.07h-20.32v12.73h20.32
				c2.3,0,4.46-0.43,6.49-1.3c2.03-0.87,3.8-2.04,5.32-3.52c1.51-1.48,2.7-3.22,3.57-5.22c0.87-2,1.3-4.13,1.3-6.39v-9.99
				C421.08,90.19,420.43,86.87,419.13,83.99z"/>
		</g>
	</g>
	<g>
		<path class="st1" d="M507.58,73.59l27.21,27.21c0.54,1.16,0.31,2.54-0.61,3.46c-0.04,0.04-61.99,46.31-61.99,46.31l66.37-37.66
			c0.95-0.54,1.81-1.21,2.58-1.97c4.03-4.03,4.64-10.23,1.83-14.92l-30.78-31.31c-2.56-2.56-6.72-2.56-9.28,0l-2.08,2.13
			L478.9,88.77c-1.15,1.15-1.15,3.01,0,4.16L507.58,73.59z"/>
		<path class="st1" d="M505.51,121.01c0,0,0.33-0.2,0.93-0.54"/>
	</g>
	<g>
		<path class="st0" d="M481.04,110.22L453.83,83c-0.54-1.16-0.31-2.54,0.61-3.46c0.04-0.04,60.94-47.29,60.94-47.29L450.06,70.9
			c-0.95,0.54-1.81,1.21-2.58,1.97c-4.03,4.03-4.64,10.23-1.83,14.92l30.78,31.31c2.56,2.56,6.72,2.56,9.28,0l2.08-2.13l21.73-21.73
			c1.26-1.26,1.26-3.31,0-4.57L481.04,110.22z"/>
		<path class="st0" d="M483.1,62.79c0,0-0.33,0.2-0.93,0.54"/>
	</g>
</g>
</svg>
